<svg id="Calque_1" data-name="Calque 1" xmlns="http://www.w3.org/2000/svg" width="31.08" height="46" viewBox="0 0 31.08 46"><defs><style>.cls-1{fill:#f39a25;stroke:#1d1d1b;stroke-miterlimit:10;}</style></defs><rect class="cls-1" x="69.64" y="59.6" width="31.26" height="2.93" transform="translate(-57.34 110.53) rotate(-90)"/><rect class="cls-1" x="72.57" y="59.6" width="31.26" height="2.93" transform="translate(-54.41 113.46) rotate(-90)"/><rect class="cls-1" x="75.5" y="59.6" width="31.26" height="2.93" transform="translate(-51.48 116.39) rotate(-90)"/><rect class="cls-1" x="78.43" y="59.6" width="31.26" height="2.93" transform="translate(-48.55 119.32) rotate(-90)"/><rect class="cls-1" x="81.45" y="59.6" width="31.26" height="2.93" transform="translate(-45.53 122.34) rotate(-90)"/><rect class="cls-1" x="84.37" y="59.6" width="31.26" height="2.93" transform="translate(-42.61 125.26) rotate(-90)"/><rect class="cls-1" x="87.3" y="59.6" width="31.26" height="2.93" transform="translate(-39.68 128.19) rotate(-90)"/><rect class="cls-1" x="90.23" y="59.6" width="31.26" height="2.93" transform="translate(-36.75 131.12) rotate(-90)"/><rect class="cls-1" x="93.16" y="59.6" width="31.26" height="2.93" transform="translate(-33.82 134.05) rotate(-90)"/><rect class="cls-1" x="94.15" y="63.34" width="5.86" height="30.08" transform="translate(-62.84 139.65) rotate(-90)"/><rect class="cls-1" x="95.03" y="26.74" width="3.9" height="29.27" transform="translate(-17.31 105.78) rotate(-95.01)"/><rect class="cls-1" x="95.75" y="33.14" width="2.46" height="9.71" transform="translate(-13.95 102.11) rotate(-95.01)"/></svg>