<svg id="Calque_1" data-name="Calque 1" xmlns="http://www.w3.org/2000/svg" width="47.88" height="42.02" viewBox="0 0 47.88 42.02"><defs><style>.cls-1{fill:#f39a25;stroke:#1d1d1b;stroke-miterlimit:10;}</style></defs><rect class="cls-1" x="91.21" y="57.87" width="11.72" height="11.72" transform="translate(-39.79 126.87) rotate(-90)"/><rect class="cls-1" x="102.93" y="52.01" width="11.72" height="11.72" transform="translate(-22.21 132.73) rotate(-90)"/><rect class="cls-1" x="91.21" y="46.15" width="11.72" height="11.72" transform="translate(-28.07 115.15) rotate(-90)"/><rect class="cls-1" x="102.93" y="40.29" width="11.72" height="11.72" transform="translate(-10.49 121.01) rotate(-90)"/><rect class="cls-1" x="79.49" y="52.01" width="11.72" height="11.72" transform="translate(-45.65 109.29) rotate(-90)"/><rect class="cls-1" x="79.49" y="40.29" width="11.72" height="11.72" transform="translate(-33.93 97.57) rotate(-90)"/><rect class="cls-1" x="94.14" y="69.59" width="5.86" height="5.86" transform="translate(-48.58 135.66) rotate(-90)"/><rect class="cls-1" x="102.93" y="63.73" width="5.86" height="5.86" transform="translate(-33.93 138.59) rotate(-90)"/><rect class="cls-1" x="82.42" y="34.43" width="5.86" height="5.86" transform="translate(-25.14 88.78) rotate(-90)"/><rect class="cls-1" x="88.28" y="40.29" width="5.86" height="5.86" transform="translate(-25.14 100.5) rotate(-90)"/><rect class="cls-1" x="100" y="40.29" width="5.86" height="5.86" transform="translate(-13.42 112.22) rotate(-90)"/><rect class="cls-1" x="105.86" y="34.43" width="5.86" height="5.86" transform="translate(-1.7 112.22) rotate(-90)"/><rect class="cls-1" x="94.14" y="42.55" width="5.86" height="5.86" transform="translate(-21.54 108.62) rotate(-90)"/><rect class="cls-1" x="73.63" y="46.15" width="5.86" height="5.86" transform="translate(-45.65 91.71) rotate(-90)"/><rect class="cls-1" x="73.63" y="52.01" width="5.86" height="5.86" transform="translate(-51.51 97.57) rotate(-90)"/><rect class="cls-1" x="114.65" y="46.15" width="5.86" height="5.86" transform="translate(-4.63 132.73) rotate(-90)"/><rect class="cls-1" x="114.65" y="52.01" width="5.86" height="5.86" transform="translate(-10.49 138.59) rotate(-90)"/><rect class="cls-1" x="85.35" y="63.73" width="5.86" height="5.86" transform="translate(-51.51 121.01) rotate(-90)"/></svg>